<svg width="166" height="53" viewBox="0 0 166 53" fill="none" xmlns="http://www.w3.org/2000/svg">
<path fill-rule="evenodd" clip-rule="evenodd" d="M52.1506 19.3782C52.1041 35.5962 52.1971 32.3698 52.1506 37.1928C52.1041 42.0158 41.8254 45.3548 29.0899 45.3548C16.3543 45.3548 6.02913 41.7044 6.02913 37.1928C6.02913 32.6812 5.90961 26.5862 6.02913 19.3782H52.1506Z" fill="white"/>
<path fill-rule="evenodd" clip-rule="evenodd" d="M29.0898 11.2163C41.8254 11.2163 52.1506 14.8733 52.1506 19.3783C52.1506 23.8899 41.8254 27.5469 29.0898 27.5469C16.3543 27.5469 6.02911 23.8899 6.02911 19.3783C6.02911 14.8733 16.3543 11.2163 29.0898 11.2163Z" fill="white"/>
<path fill-rule="evenodd" clip-rule="evenodd" d="M11.766 10.5803C13.2335 10.5803 14.422 11.7662 14.422 13.2303C14.422 14.6944 13.2335 15.8803 11.766 15.8803C10.2986 15.8803 9.11005 14.6944 9.11005 13.2303C9.11005 11.7662 10.2986 10.5803 11.766 10.5803Z" fill="white"/>
<path fill-rule="evenodd" clip-rule="evenodd" d="M6.34783 15.6682C7.81527 15.6682 9.00383 16.8541 9.00383 18.3182C9.00383 19.7823 7.81527 20.9682 6.34783 20.9682C4.88039 20.9682 3.69183 19.7823 3.69183 18.3182C3.69183 16.8541 4.88039 15.6682 6.34783 15.6682Z" fill="white"/>
<path fill-rule="evenodd" clip-rule="evenodd" d="M19.9532 8.24829C21.4206 8.24829 22.6092 9.43417 22.6092 10.8983C22.6092 12.3624 21.4206 13.5483 19.9532 13.5483C18.4857 13.5483 17.2905 12.3624 17.2905 10.8983C17.2905 9.43417 18.4857 8.24829 19.9532 8.24829Z" fill="white"/>
<path fill-rule="evenodd" clip-rule="evenodd" d="M29.0898 24.8901C30.5573 24.8901 31.7458 26.0826 31.7458 27.5468C31.7458 29.0109 30.5573 30.1968 29.0898 30.1968C27.6224 30.1968 26.4338 29.0109 26.4338 27.5468C26.4338 26.0826 27.6224 24.8901 29.0898 24.8901Z" fill="white"/>
<path fill-rule="evenodd" clip-rule="evenodd" d="M38.1269 24.241C39.5943 24.241 40.7829 25.4268 40.7829 26.891C40.7829 28.3551 39.5943 29.541 38.1269 29.541C36.6594 29.541 35.4709 28.3551 35.4709 26.891C35.4709 25.4268 36.6594 24.241 38.1269 24.241Z" fill="white"/>
<path fill-rule="evenodd" clip-rule="evenodd" d="M46.958 21.8892C48.4188 21.8892 49.614 23.0817 49.614 24.5458C49.614 26.0099 48.4188 27.1958 46.958 27.1958C45.4906 27.1958 44.2954 26.0099 44.2954 24.5458C44.2954 23.0817 45.4906 21.8892 46.958 21.8892Z" fill="white"/>
<path fill-rule="evenodd" clip-rule="evenodd" d="M19.9731 23.4592C21.4406 23.4592 22.6291 24.6451 22.6291 26.1092C22.6291 27.5734 21.4406 28.7592 19.9731 28.7592C18.5057 28.7592 17.3171 27.5734 17.3171 26.1092C17.3171 24.6451 18.5057 23.4592 19.9731 23.4592Z" fill="white"/>
<path fill-rule="evenodd" clip-rule="evenodd" d="M12.4832 21.3525C13.9506 21.3525 15.1392 22.5384 15.1392 24.0025C15.1392 25.4667 13.9506 26.6525 12.4832 26.6525C11.0158 26.6525 9.82721 25.4667 9.82721 24.0025C9.82721 22.5384 11.0158 21.3525 12.4832 21.3525Z" fill="white"/>
<path fill-rule="evenodd" clip-rule="evenodd" d="M29.3023 7.18823C30.7697 7.18823 31.9583 8.37411 31.9583 9.83823C31.9583 11.3024 30.7697 12.4882 29.3023 12.4882C27.8349 12.4882 26.6463 11.3024 26.6463 9.83823C26.6463 8.37411 27.8349 7.18823 29.3023 7.18823Z" fill="white"/>
<path fill-rule="evenodd" clip-rule="evenodd" d="M38.2265 8.24829C39.6939 8.24829 40.8891 9.43417 40.8891 10.8983C40.8891 12.3624 39.6939 13.5483 38.2265 13.5483C36.7591 13.5483 35.5705 12.3624 35.5705 10.8983C35.5705 9.43417 36.7591 8.24829 38.2265 8.24829Z" fill="white"/>
<path fill-rule="evenodd" clip-rule="evenodd" d="M45.2449 10.5803C46.7124 10.5803 47.9009 11.7662 47.9009 13.2303C47.9009 14.6944 46.7124 15.8803 45.2449 15.8803C43.7775 15.8803 42.5889 14.6944 42.5889 13.2303C42.5889 11.7662 43.7775 10.5803 45.2449 10.5803Z" fill="white"/>
<path fill-rule="evenodd" clip-rule="evenodd" d="M51.4069 15.0322C52.8743 15.0322 54.0629 16.2181 54.0629 17.6822C54.0629 19.1464 52.8743 20.3322 51.4069 20.3322C49.9394 20.3322 48.7509 19.1464 48.7509 17.6822C48.7509 16.2181 49.9394 15.0322 51.4069 15.0322Z" fill="white"/>
<path d="M71.6323 7.87728H76.34C76.6588 7.87728 76.8646 7.91703 76.9642 8.01641C77.0572 8.10253 77.1103 8.34103 77.1103 8.71866C77.1103 9.06316 77.0771 9.30166 77.0107 9.43416C76.9376 9.57328 76.7716 9.69916 76.5127 9.82503C76.2736 9.92441 76.1276 10.0437 76.0612 10.1695C76.0014 10.2954 75.9682 10.4942 75.9682 10.7724V26.4737C75.9682 26.6989 75.9948 26.8712 76.0479 26.9772C76.101 27.0832 76.2537 27.1958 76.4994 27.3084C76.8314 27.4608 76.9974 27.6794 76.9974 27.9577C76.9974 28.64 76.9775 29.0243 76.931 29.0972C76.8912 29.1767 76.7318 29.2098 76.4728 29.2098H70.5433C70.2844 29.2098 70.1582 28.9912 70.1582 28.5605C70.1582 28.1895 70.1715 27.9179 70.2047 27.7324C70.2312 27.5535 70.3906 27.4078 70.6894 27.2952C71.028 27.1627 71.194 26.9242 71.194 26.5929V15.4563L68.797 24.4464H67.3362L64.979 15.7345V26.5532C64.979 26.9043 65.1384 27.1693 65.4504 27.3349C65.8422 27.527 66.0348 27.8715 66.0348 28.3618C66.0348 28.9249 65.8422 29.2098 65.4571 29.2098H62.5886C62.2632 29.2098 62.1039 28.9382 62.1039 28.4015C62.1039 28.0239 62.2367 27.7324 62.5089 27.5337C62.7148 27.3614 62.8409 27.2289 62.894 27.1295C62.9405 27.0235 62.9671 26.8513 62.9671 26.5929V11.3157C62.9671 10.8917 62.9339 10.567 62.8542 10.3484C62.7812 10.1232 62.6218 9.93766 62.3761 9.79853C62.1105 9.65941 61.9777 9.51366 61.9777 9.36128L61.991 8.79153C62.0043 8.38078 62.0308 8.12903 62.0773 8.02966C62.1304 7.92366 62.2433 7.87728 62.4292 7.87728H67.3362L69.4676 16.0393L71.6323 7.87728ZM82.6016 14.6679C82.7078 14.4559 82.8406 14.0849 82.9867 13.5549C83.3253 12.4088 83.6507 11.6867 83.976 11.4018C84.3014 11.1037 84.6533 10.9579 85.0385 10.9579C85.5763 10.9579 85.9747 11.2163 86.2469 11.7132C86.5125 12.2167 86.6453 12.846 86.6453 13.6079C86.6453 15.231 86.1872 16.0525 85.2708 16.0525C84.806 16.0525 84.4541 15.7809 84.2084 15.2443C84.0557 14.9329 83.903 14.7805 83.7436 14.7805C83.3452 14.7805 83.146 15.2178 83.146 16.0857V26.6592C83.146 26.997 83.2988 27.2355 83.6108 27.4012C83.9163 27.5469 84.069 27.792 84.069 28.1299V28.7262C84.069 28.9315 84.0491 29.064 83.996 29.1237C83.9495 29.1833 83.81 29.2098 83.5776 29.2098H78.5844C78.2457 29.2098 78.0731 29.0508 78.0731 28.7262V27.9908C78.0731 27.7457 78.1461 27.5867 78.2988 27.5072C78.5976 27.3548 78.7504 27.1229 78.7504 26.8182V13.5085C78.7504 13.2038 78.6441 12.9852 78.4316 12.8593C78.2059 12.7268 78.0731 12.6208 78.0465 12.5479C78.0067 12.475 77.9934 12.2432 77.9934 11.8655C77.9934 11.5475 78.0332 11.3488 78.1328 11.2693C78.2192 11.1898 78.3785 11.15 78.5976 11.15H82.17C82.336 11.15 82.4488 11.1964 82.5152 11.2892C82.575 11.3819 82.6016 11.6072 82.6016 11.9583V14.6679ZM88.717 23.9827C89.3744 23.9827 89.9189 24.241 90.3505 24.7512C90.7754 25.2679 90.9879 25.8907 90.9879 26.6459C90.9879 27.3614 90.7688 27.9974 90.3239 28.5605C89.879 29.117 89.3478 29.4019 88.717 29.4019C88.1061 29.4019 87.6015 29.1502 87.1965 28.6533C86.798 28.1564 86.5922 27.527 86.5922 26.7784C86.5922 26.0364 86.7848 25.3872 87.1632 24.824C87.5417 24.2675 88.0663 23.9827 88.717 23.9827ZM101.526 7.51953H102.216C102.375 7.51953 102.488 7.57916 102.575 7.70503C102.648 7.81766 102.707 8.14228 102.747 8.65903L103.046 12.9123C103.059 12.9984 103.059 13.0845 103.059 13.164C103.059 13.4688 103.006 13.6874 102.9 13.8067C102.794 13.9325 102.581 13.9922 102.263 13.9922C101.871 13.9922 101.599 13.8928 101.453 13.694C101.3 13.4887 101.154 13.005 101.014 12.2498C100.662 10.3219 100.151 9.36128 99.5004 9.36128C98.9492 9.36128 98.677 10.0569 98.677 11.4415V26.3213C98.677 27.3084 98.9692 27.8053 99.5402 27.8053C100.271 27.8053 100.682 26.9838 100.769 25.3342C100.795 24.8572 100.888 24.5259 101.047 24.3404C101.207 24.1549 101.532 24.0688 102.024 24.0688C102.395 24.0688 102.654 24.135 102.8 24.2675C102.947 24.4067 103.02 24.6783 103.02 25.0692C103.02 26.3279 102.641 27.3747 101.884 28.2028C101.127 29.0375 100.178 29.4549 99.0555 29.4549C97.9599 29.4549 97.0037 29.1038 96.1671 28.4148C95.3437 27.7125 94.6266 26.5134 94.0224 24.8042C93.4181 23.1015 93.1127 20.9219 93.1127 18.2587C93.1127 15.7412 93.3716 13.7338 93.8763 12.2365C94.3809 10.7327 95.0316 9.57328 95.8152 8.75178C96.6053 7.93691 97.5216 7.52616 98.5708 7.51953C99.2016 7.51953 99.7527 7.69178 100.217 8.03628C100.397 8.15553 100.53 8.21516 100.616 8.21516C100.722 8.21516 100.875 8.09591 101.067 7.85078C101.233 7.63216 101.386 7.51953 101.526 7.51953ZM110.815 16.4037V13.8398C110.815 13.1309 110.529 12.7732 109.952 12.7732C109.155 12.7732 108.757 13.3098 108.757 14.3764C108.757 14.9793 108.69 15.4099 108.551 15.6617C108.418 15.92 108.106 16.1387 107.628 16.3242C107.15 16.503 106.632 16.5958 106.094 16.5958C104.972 16.5958 104.414 15.9929 104.414 14.7938C104.414 13.6675 104.905 12.74 105.881 12.0312C106.857 11.3157 108.126 10.9579 109.699 10.9579C110.735 10.9579 111.665 11.1037 112.495 11.3819C113.318 11.6668 113.976 12.1438 114.467 12.8129C114.958 13.482 115.211 14.2174 115.217 15.019V27.0832C115.231 27.1428 115.363 27.2753 115.602 27.4807C115.782 27.6065 115.868 27.8053 115.868 28.057C115.868 28.4148 115.815 28.6665 115.722 28.8057C115.622 28.958 115.383 29.0905 115.018 29.2164C114.64 29.3357 114.168 29.4019 113.604 29.4019C112.92 29.4019 112.349 29.276 111.891 29.0177C111.426 28.7659 111.074 28.2757 110.815 27.5403C110.051 28.3353 109.427 28.8454 108.949 29.064C108.471 29.2893 107.98 29.4019 107.482 29.4019C106.359 29.4019 105.49 28.9647 104.872 28.0835C104.261 27.209 103.949 25.778 103.949 23.7839C103.949 21.7964 104.241 20.4118 104.819 19.6499C105.39 18.8748 106.512 18.1659 108.179 17.51C109.241 17.1059 110.124 16.7349 110.815 16.4037ZM110.815 18.1195C109.812 18.5634 109.215 19.0537 109.022 19.6035C108.83 20.1534 108.73 21.3923 108.73 23.3135C108.73 24.7313 108.81 25.6257 108.969 25.9967C109.128 26.3743 109.401 26.5598 109.792 26.5598C110.476 26.5598 110.815 25.99 110.815 24.8704V18.1195ZM122.136 23.4063V26.9507C122.136 27.1892 122.249 27.3747 122.475 27.5072C122.647 27.5999 122.734 27.7722 122.734 28.0173V28.7262C122.734 29.0508 122.561 29.2098 122.236 29.2098H117.481C117.163 29.2098 117.003 29.011 117.003 28.6135V27.9908C117.003 27.845 117.13 27.6728 117.375 27.4807C117.574 27.3084 117.681 27.1892 117.707 27.1229C117.727 27.05 117.74 26.9374 117.74 26.7917V10.9579C117.74 10.3948 117.568 9.99066 117.236 9.74553C117.13 9.65941 117.063 9.57328 117.05 9.50041C117.037 9.43416 117.03 9.26191 117.03 8.99028C117.03 8.42053 117.043 8.09591 117.063 8.00316C117.09 7.91703 117.223 7.87728 117.468 7.87728H121.645C121.871 7.87728 122.003 7.90378 122.056 7.97003C122.11 8.04291 122.136 8.20191 122.136 8.45366V19.9215L124.593 14.3433C124.752 13.9922 124.832 13.7537 124.832 13.6278C124.832 13.3363 124.619 13.1044 124.208 12.9388C124.015 12.8659 123.896 12.7798 123.829 12.6738C123.77 12.5678 123.736 12.3558 123.736 12.0312C123.736 11.627 123.776 11.3819 123.856 11.2892C123.936 11.1964 124.082 11.15 124.307 11.15H127.966C128.165 11.1765 128.265 11.4084 128.265 11.8457C128.265 12.2432 128.232 12.5082 128.152 12.6473C128.086 12.7864 127.913 12.9255 127.661 13.0514C127.262 13.2502 126.99 13.5085 126.831 13.8332L125.881 15.761L128.716 26.6724C128.796 26.997 128.975 27.2554 129.267 27.4475C129.46 27.58 129.56 27.7655 129.56 28.0173V28.7262C129.56 29.0508 129.374 29.2098 129.015 29.2098H125.456C125.005 29.2098 124.712 28.9183 124.58 28.3353L123.059 21.5248L122.136 23.4063ZM135.489 19.9215V25.3275C135.489 26.043 135.629 26.5995 135.901 27.0037C136.18 27.4078 136.538 27.6132 136.977 27.6132C137.647 27.6132 138.185 27.3283 138.59 26.7585C138.988 26.1888 139.208 25.4137 139.234 24.4199C139.241 23.8899 139.287 23.5719 139.387 23.4659C139.473 23.3599 139.799 23.3069 140.356 23.3069C140.834 23.3069 141.133 23.3599 141.259 23.4527C141.392 23.552 141.459 23.7972 141.459 24.1814C141.459 25.5395 141.014 26.7519 140.131 27.8119C139.247 28.8719 138.072 29.4019 136.611 29.4019C134.938 29.4019 133.517 28.64 132.355 27.1295C131.186 25.619 130.602 23.3467 130.602 20.2992C130.602 17.2583 131.14 14.9395 132.222 13.3495C133.305 11.7529 134.719 10.9579 136.465 10.9579C137.973 10.9579 139.174 11.6337 140.091 12.9719C141 14.3168 141.459 16.2248 141.459 18.6893V19.9215H135.489ZM137.302 18.2454V13.8795C137.302 13.0514 137.003 12.6407 136.405 12.6407C135.795 12.6407 135.489 13.0514 135.489 13.8795V18.2454H137.302Z" fill="white"/>
<path d="M83.5312 37.0007L83.4914 37.9613C82.7875 37.8951 82.097 37.862 81.4197 37.862C81.4064 38.4582 81.3931 39.2334 81.3931 40.1807C81.3931 41.2142 81.4263 42.2014 81.4927 43.1355H80.3174C80.3772 42.2742 80.4104 41.2871 80.4104 40.1807C80.4104 39.2599 80.3905 38.4847 80.3573 37.862C79.68 37.862 78.9828 37.8951 78.2657 37.9613L78.3055 37.0007H83.5312ZM90.5762 39.8826C90.5762 40.9824 90.2575 41.8436 89.6267 42.4597C88.9893 43.0759 88.2456 43.3872 87.3824 43.3872C86.5856 43.3872 85.895 43.109 85.3174 42.5657C84.7397 42.0159 84.4542 41.2474 84.4542 40.2536C84.4542 39.1472 84.7729 38.2793 85.4103 37.6566C86.0478 37.0272 86.7914 36.7225 87.648 36.7225C88.4514 36.7225 89.142 36.9941 89.713 37.544C90.2907 38.1005 90.5762 38.8756 90.5762 39.8826ZM89.4541 40.1079C89.4541 39.4321 89.2881 38.8359 88.9495 38.3191C88.6108 37.7957 88.1261 37.5307 87.5019 37.5307C86.8844 37.5307 86.3997 37.7758 86.0677 38.2727C85.7357 38.7696 85.5697 39.3393 85.5697 39.9952C85.5697 40.671 85.7357 41.2672 86.0743 41.7906C86.413 42.314 86.8977 42.5724 87.5285 42.5724C88.146 42.5724 88.6241 42.3206 88.9561 41.8237C89.2881 41.3269 89.4541 40.7571 89.4541 40.1079ZM97.9334 39.8163C97.9334 40.7439 97.6678 41.5587 97.1366 42.261C96.6054 42.9566 95.8617 43.3077 94.9122 43.3077C94.122 43.3077 93.5974 43.1686 93.3518 42.8837H93.2854C93.2854 44.0762 93.2986 45.1429 93.3252 46.0836H92.1101C92.203 44.9375 92.2562 43.5264 92.2562 41.8436C92.2562 39.77 92.1499 38.1667 91.9308 37.0272L93.0729 36.8682L93.1658 37.5042H93.2322C93.6506 37.0206 94.3278 36.7755 95.2641 36.7755C96.0874 36.7755 96.7382 37.0736 97.2162 37.6765C97.6943 38.2793 97.9334 38.9882 97.9334 39.8163ZM96.7846 39.9687C96.7846 39.3327 96.612 38.7895 96.28 38.339C95.9414 37.8818 95.4699 37.6566 94.859 37.6566C94.0888 37.6566 93.5311 37.8885 93.1924 38.3589C93.2655 39.8031 93.2986 41.042 93.2986 42.0821C93.6506 42.3736 94.1021 42.5194 94.6665 42.5194C95.377 42.5194 95.9082 42.2676 96.2601 41.7707C96.6054 41.2739 96.7846 40.671 96.7846 39.9687ZM104.122 37.0007L104.082 37.9613C103.385 37.8951 102.694 37.862 102.017 37.862C101.997 38.4582 101.99 39.2334 101.99 40.1807C101.99 41.2142 102.024 42.2014 102.09 43.1355H100.908C100.968 42.2742 101.001 41.2871 101.001 40.1807C101.001 39.2599 100.981 38.4847 100.948 37.862C100.277 37.862 99.5801 37.8951 98.863 37.9613L98.9028 37.0007H104.122ZM109.932 41.0817C109.932 41.7509 109.666 42.261 109.135 42.6253C108.604 42.9897 107.993 43.1752 107.316 43.1752C106.964 43.1752 106.286 43.162 105.284 43.1355C105.33 42.2742 105.357 41.2871 105.357 40.1807C105.357 38.9419 105.277 37.8951 105.124 37.0537L106.346 36.8815C106.306 37.4247 106.293 38.2396 106.293 39.3261C106.592 39.24 106.884 39.2069 107.163 39.2069C109.009 39.2069 109.932 39.8296 109.932 41.0817ZM112.037 43.1355H110.915C110.974 42.2742 111.008 41.2871 111.008 40.1807C111.008 38.9419 110.928 37.8951 110.782 37.0537L112.023 36.8815C111.964 37.7758 111.937 38.8822 111.937 40.1807C111.937 41.2142 111.97 42.2014 112.037 43.1355ZM108.936 41.1877C108.936 40.3861 108.345 39.982 107.163 39.982C106.944 39.982 106.652 40.0151 106.293 40.0814C106.293 40.8499 106.3 41.5919 106.32 42.3074C106.638 42.3604 106.977 42.3869 107.336 42.3869C108.405 42.3869 108.936 41.9827 108.936 41.1877ZM121.698 41.3202C121.698 41.9231 121.452 42.3802 120.961 42.6982C120.47 43.0162 119.772 43.1752 118.856 43.1752C118.378 43.1752 117.628 43.162 116.625 43.1355C116.678 42.5459 116.711 41.5587 116.711 40.1675C116.711 38.8822 116.638 37.8288 116.486 37.0007H117.156C117.8 36.9543 118.451 36.9345 119.122 36.9345C120.655 36.9345 121.419 37.4048 121.419 38.3522C121.419 39.0478 121.107 39.5248 120.483 39.7832V39.8495C121.293 40.0019 121.698 40.4921 121.698 41.3202ZM120.649 41.3865C120.649 40.9426 120.45 40.6445 120.045 40.4855C119.792 40.3927 119.4 40.3464 118.869 40.3464C118.464 40.3464 118.066 40.3596 117.661 40.3927C117.661 41.1546 117.667 41.7906 117.674 42.3007C118.066 42.3537 118.537 42.3802 119.088 42.3802C120.131 42.3802 120.649 42.049 120.649 41.3865ZM120.423 38.6305C120.423 38.0276 119.985 37.7228 119.108 37.7228C118.67 37.7228 118.179 37.7427 117.608 37.7825C117.648 38.4052 117.661 39.0081 117.661 39.5845C118.205 39.6044 118.657 39.6176 119.029 39.6176C119.474 39.6176 119.819 39.5182 120.064 39.3327C120.304 39.1538 120.423 38.922 120.423 38.6305ZM132.169 42.1086L132.083 43.0692C131.552 43.2282 130.974 43.3077 130.35 43.3077C128.869 43.3077 127.754 42.9036 127.01 42.0887C126.26 41.2805 125.888 40.2867 125.888 39.1207C125.888 37.8951 126.306 36.8351 127.136 35.9473C127.966 35.0596 129.088 34.6157 130.496 34.6157C130.881 34.6157 131.293 34.6753 131.724 34.788L131.545 35.8148C131.047 35.6625 130.602 35.583 130.217 35.583C129.175 35.583 128.384 35.9076 127.84 36.5502C127.302 37.1995 127.036 37.9878 127.036 38.922C127.036 39.8694 127.342 40.6842 127.966 41.3666C128.584 42.0424 129.44 42.3869 130.542 42.3869C130.961 42.3869 131.499 42.2941 132.169 42.1086ZM139.287 39.8826C139.287 40.9824 138.969 41.8436 138.331 42.4597C137.7 43.0759 136.95 43.3872 136.093 43.3872C135.29 43.3872 134.606 43.109 134.028 42.5657C133.451 42.0159 133.165 41.2474 133.165 40.2536C133.165 39.1472 133.484 38.2793 134.121 37.6566C134.752 37.0272 135.502 36.7225 136.359 36.7225C137.162 36.7225 137.846 36.9941 138.424 37.544C138.995 38.1005 139.287 38.8756 139.287 39.8826ZM138.165 40.1079C138.165 39.4321 137.992 38.8359 137.66 38.3191C137.315 37.7957 136.837 37.5307 136.213 37.5307C135.589 37.5307 135.111 37.7758 134.779 38.2727C134.447 38.7696 134.281 39.3393 134.281 39.9952C134.281 40.671 134.447 41.2672 134.785 41.7906C135.124 42.314 135.609 42.5724 136.24 42.5724C136.857 42.5724 137.335 42.3206 137.667 41.8237C137.999 41.3269 138.165 40.7571 138.165 40.1079ZM145.297 43.1355H144.148C144.214 42.3405 144.247 41.4064 144.247 40.3199C143.749 40.5915 143.145 40.724 142.428 40.724C141.698 40.724 141.16 40.5584 140.808 40.2139C140.463 39.8694 140.283 39.1671 140.283 38.1071C140.283 37.8885 140.257 37.5307 140.21 37.0272L141.346 36.8682C141.306 37.279 141.286 37.6036 141.286 37.8553C141.286 38.6305 141.392 39.1605 141.598 39.4387C141.81 39.717 142.169 39.8561 142.687 39.8561C143.318 39.8561 143.829 39.7567 144.234 39.558C144.208 38.5576 144.141 37.7228 144.035 37.0537L145.283 36.8815C145.237 37.7758 145.21 38.8822 145.21 40.1807C145.21 41.2142 145.237 42.2014 145.297 43.1355ZM152.302 43.1355H151.146C151.206 42.4001 151.239 41.413 151.239 40.1807C151.239 39.8362 151.266 39.3129 151.306 38.6172H151.239C151.153 38.9154 150.562 39.6905 149.48 40.9559C148.444 42.1682 147.933 42.8904 147.933 43.1355H147.01C147.069 42.2742 147.103 41.2871 147.103 40.1807C147.103 38.9419 147.03 37.8951 146.877 37.0537L148.158 36.8815C148.099 37.6765 148.072 38.6901 148.072 39.9223C148.072 40.353 148.059 40.9029 148.032 41.572H148.099C148.198 41.3004 148.782 40.5186 149.858 39.2334C150.867 38.0276 151.372 37.2988 151.372 37.0537L152.288 36.8815C152.235 37.7758 152.209 38.8822 152.209 40.1807C152.209 41.2142 152.242 42.2014 152.302 43.1355Z" fill="white"/>
</svg>
