<svg width="129" height="42" viewBox="0 0 129 42" fill="none" xmlns="http://www.w3.org/2000/svg">
<path fill-rule="evenodd" clip-rule="evenodd" d="M40.5266 15.3562C40.4905 28.2082 40.5628 25.6514 40.5266 29.4734C40.4905 33.2954 32.5028 35.9414 22.606 35.9414C12.7091 35.9414 4.68528 33.0487 4.68528 29.4734C4.68528 25.8982 4.5924 21.0682 4.68528 15.3562H40.5266Z" fill="#E7A243" stroke="#E7A243" stroke-width="0.59" stroke-miterlimit="22.9256"/>
<path fill-rule="evenodd" clip-rule="evenodd" d="M22.606 8.88818C32.5028 8.88818 40.5266 11.7862 40.5266 15.3562C40.5266 18.9314 32.5028 21.8294 22.606 21.8294C12.7091 21.8294 4.68528 18.9314 4.68528 15.3562C4.68528 11.7862 12.7091 8.88818 22.606 8.88818Z" fill="#E5594C"/>
<path fill-rule="evenodd" clip-rule="evenodd" d="M9.14352 8.38428C10.2839 8.38428 11.2075 9.32403 11.2075 10.4843C11.2075 11.6445 10.2839 12.5843 9.14352 12.5843C8.00316 12.5843 7.07952 11.6445 7.07952 10.4843C7.07952 9.32403 8.00316 8.38428 9.14352 8.38428Z" fill="#F4E6CC"/>
<path fill-rule="evenodd" clip-rule="evenodd" d="M4.93296 12.4163C6.07332 12.4163 6.99696 13.356 6.99696 14.5163C6.99696 15.6765 6.07332 16.6163 4.93296 16.6163C3.7926 16.6163 2.86896 15.6765 2.86896 14.5163C2.86896 13.356 3.7926 12.4163 4.93296 12.4163Z" fill="#F4E6CC"/>
<path fill-rule="evenodd" clip-rule="evenodd" d="M15.5058 6.53638C16.6462 6.53638 17.5698 7.47613 17.5698 8.63638C17.5698 9.79663 16.6462 10.7364 15.5058 10.7364C14.3654 10.7364 13.4366 9.79663 13.4366 8.63638C13.4366 7.47613 14.3654 6.53638 15.5058 6.53638Z" fill="#F4E6CC"/>
<path fill-rule="evenodd" clip-rule="evenodd" d="M22.606 19.7244C23.7463 19.7244 24.67 20.6694 24.67 21.8296C24.67 22.9899 23.7463 23.9296 22.606 23.9296C21.4656 23.9296 20.542 22.9899 20.542 21.8296C20.542 20.6694 21.4656 19.7244 22.606 19.7244Z" fill="#F4E6CC"/>
<path fill-rule="evenodd" clip-rule="evenodd" d="M29.6287 19.2097C30.7691 19.2097 31.6927 20.1495 31.6927 21.3097C31.6927 22.47 30.7691 23.4097 29.6287 23.4097C28.4884 23.4097 27.5647 22.47 27.5647 21.3097C27.5647 20.1495 28.4884 19.2097 29.6287 19.2097Z" fill="#F4E6CC"/>
<path fill-rule="evenodd" clip-rule="evenodd" d="M36.4915 17.3459C37.6267 17.3459 38.5555 18.2909 38.5555 19.4512C38.5555 20.6114 37.6267 21.5512 36.4915 21.5512C35.3512 21.5512 34.4224 20.6114 34.4224 19.4512C34.4224 18.2909 35.3512 17.3459 36.4915 17.3459Z" fill="#F4E6CC"/>
<path fill-rule="evenodd" clip-rule="evenodd" d="M15.5213 18.5903C16.6616 18.5903 17.5853 19.5301 17.5853 20.6903C17.5853 21.8506 16.6616 22.7903 15.5213 22.7903C14.3809 22.7903 13.4573 21.8506 13.4573 20.6903C13.4573 19.5301 14.3809 18.5903 15.5213 18.5903Z" fill="#F4E6CC"/>
<path fill-rule="evenodd" clip-rule="evenodd" d="M9.7008 16.9209C10.8412 16.9209 11.7648 17.8606 11.7648 19.0209C11.7648 20.1811 10.8412 21.1209 9.7008 21.1209C8.56044 21.1209 7.6368 20.1811 7.6368 19.0209C7.6368 17.8606 8.56044 16.9209 9.7008 16.9209Z" fill="#F4E6CC"/>
<path fill-rule="evenodd" clip-rule="evenodd" d="M22.7711 5.69629C23.9114 5.69629 24.8351 6.63604 24.8351 7.79629C24.8351 8.95654 23.9114 9.89629 22.7711 9.89629C21.6307 9.89629 20.7071 8.95654 20.7071 7.79629C20.7071 6.63604 21.6307 5.69629 22.7711 5.69629Z" fill="#F4E6CC"/>
<path fill-rule="evenodd" clip-rule="evenodd" d="M29.7061 6.53638C30.8465 6.53638 31.7753 7.47613 31.7753 8.63638C31.7753 9.79663 30.8465 10.7364 29.7061 10.7364C28.5658 10.7364 27.6421 9.79663 27.6421 8.63638C27.6421 7.47613 28.5658 6.53638 29.7061 6.53638Z" fill="#F4E6CC"/>
<path fill-rule="evenodd" clip-rule="evenodd" d="M35.1602 8.38428C36.3006 8.38428 37.2242 9.32403 37.2242 10.4843C37.2242 11.6445 36.3006 12.5843 35.1602 12.5843C34.0199 12.5843 33.0962 11.6445 33.0962 10.4843C33.0962 9.32403 34.0199 8.38428 35.1602 8.38428Z" fill="#F4E6CC"/>
<path fill-rule="evenodd" clip-rule="evenodd" d="M39.9487 11.9124C41.0891 11.9124 42.0127 12.8521 42.0127 14.0124C42.0127 15.1726 41.0891 16.1124 39.9487 16.1124C38.8084 16.1124 37.8847 15.1726 37.8847 14.0124C37.8847 12.8521 38.8084 11.9124 39.9487 11.9124Z" fill="#F4E6CC"/>
<path d="M55.6661 6.24224H59.3245C59.5722 6.24224 59.7322 6.27374 59.8096 6.35249C59.8818 6.42074 59.9231 6.60974 59.9231 6.90899C59.9231 7.18199 59.8973 7.37099 59.8457 7.47599C59.7889 7.58624 59.6599 7.68599 59.4587 7.78574C59.2729 7.86449 59.1594 7.95899 59.1078 8.05874C59.0614 8.15849 59.0356 8.31599 59.0356 8.53649V20.979C59.0356 21.1575 59.0562 21.294 59.0975 21.378C59.1388 21.462 59.2574 21.5512 59.4484 21.6405C59.7064 21.7612 59.8354 21.9345 59.8354 22.155C59.8354 22.6957 59.8199 23.0002 59.7838 23.058C59.7528 23.121 59.629 23.1472 59.4277 23.1472H54.8198C54.6186 23.1472 54.5206 22.974 54.5206 22.6327C54.5206 22.3387 54.5309 22.1235 54.5567 21.9765C54.5773 21.8347 54.7012 21.7192 54.9334 21.63C55.1965 21.525 55.3255 21.336 55.3255 21.0735V12.2482L53.4628 19.3725H52.3276L50.4958 12.4687V21.042C50.4958 21.3202 50.6196 21.5302 50.8621 21.6615C51.1666 21.8137 51.3162 22.0867 51.3162 22.4752C51.3162 22.9215 51.1666 23.1472 50.8673 23.1472H48.6382C48.3853 23.1472 48.2615 22.932 48.2615 22.5067C48.2615 22.2075 48.3647 21.9765 48.5762 21.819C48.7362 21.6825 48.8342 21.5775 48.8755 21.4987C48.9116 21.4147 48.9323 21.2782 48.9323 21.0735V8.96699C48.9323 8.63099 48.9065 8.37374 48.8446 8.20049C48.7878 8.02199 48.664 7.87499 48.473 7.76474C48.2666 7.65449 48.1634 7.53899 48.1634 7.41824L48.1738 6.96674C48.1841 6.64124 48.2047 6.44174 48.2408 6.36299C48.2821 6.27899 48.3698 6.24224 48.5143 6.24224H52.3276L53.9839 12.7102L55.6661 6.24224ZM64.1904 11.6235C64.273 11.4555 64.3762 11.1615 64.4897 10.7415C64.7528 9.83324 65.0057 9.26099 65.2585 9.03524C65.5114 8.79899 65.7848 8.68349 66.0841 8.68349C66.5021 8.68349 66.8117 8.88824 67.0232 9.28199C67.2296 9.68099 67.3328 10.1797 67.3328 10.7835C67.3328 12.0697 66.9768 12.7207 66.2647 12.7207C65.9035 12.7207 65.63 12.5055 65.4391 12.0802C65.3204 11.8335 65.2018 11.7127 65.0779 11.7127C64.7683 11.7127 64.6135 12.0592 64.6135 12.747V21.126C64.6135 21.3937 64.7322 21.5827 64.9747 21.714C65.2121 21.8295 65.3308 22.0237 65.3308 22.2915V22.764C65.3308 22.9267 65.3153 23.0317 65.274 23.079C65.2379 23.1262 65.1295 23.1472 64.9489 23.1472H61.0686C60.8054 23.1472 60.6713 23.0212 60.6713 22.764V22.1812C60.6713 21.987 60.728 21.861 60.8467 21.798C61.0789 21.6772 61.1976 21.4935 61.1976 21.252V10.7047C61.1976 10.4632 61.115 10.29 60.9499 10.1902C60.7745 10.0852 60.6713 10.0012 60.6506 9.94349C60.6197 9.88574 60.6094 9.70199 60.6094 9.40274C60.6094 9.15074 60.6403 8.99324 60.7177 8.93024C60.7848 8.86724 60.9086 8.83574 61.0789 8.83574H63.855C63.984 8.83574 64.0717 8.87249 64.1233 8.94599C64.1698 9.01949 64.1904 9.19799 64.1904 9.47624V11.6235ZM68.9428 19.005C69.4536 19.005 69.8767 19.2097 70.2121 19.614C70.5424 20.0235 70.7075 20.517 70.7075 21.1155C70.7075 21.6825 70.5372 22.1865 70.1915 22.6327C69.8458 23.0737 69.433 23.2995 68.9428 23.2995C68.468 23.2995 68.0759 23.1 67.7611 22.7062C67.4515 22.3125 67.2916 21.8137 67.2916 21.2205C67.2916 20.6325 67.4412 20.118 67.7353 19.6717C68.0294 19.2307 68.4371 19.005 68.9428 19.005ZM78.8964 5.95874H79.433C79.5569 5.95874 79.6446 6.00599 79.7117 6.10574C79.7684 6.19499 79.8149 6.45224 79.8458 6.86174L80.078 10.2322C80.0884 10.3005 80.0884 10.3687 80.0884 10.4317C80.0884 10.6732 80.0471 10.8465 79.9645 10.941C79.882 11.0407 79.7168 11.088 79.4692 11.088C79.1647 11.088 78.9532 11.0092 78.8396 10.8517C78.721 10.689 78.6074 10.3057 78.4991 9.70724C78.2256 8.17949 77.8283 7.41824 77.3226 7.41824C76.8943 7.41824 76.6828 7.96949 76.6828 9.06674V20.8582C76.6828 21.6405 76.9098 22.0342 77.3536 22.0342C77.9212 22.0342 78.2411 21.3832 78.3082 20.076C78.3288 19.698 78.401 19.4355 78.5249 19.2885C78.6487 19.1415 78.9016 19.0732 79.2834 19.0732C79.5724 19.0732 79.7736 19.1257 79.8871 19.2307C80.0006 19.341 80.0574 19.5562 80.0574 19.866C80.0574 20.8635 79.7633 21.693 79.175 22.3492C78.5868 23.0107 77.8489 23.3415 76.9769 23.3415C76.1255 23.3415 75.3824 23.0632 74.7323 22.5172C74.0924 21.9607 73.5352 21.0105 73.0656 19.656C72.596 18.3067 72.3587 16.5795 72.3587 14.469C72.3587 12.474 72.5599 10.8832 72.9521 9.69674C73.3442 8.50499 73.8499 7.58624 74.4588 6.93524C75.0728 6.28949 75.7849 5.96399 76.6002 5.95874C77.0904 5.95874 77.5187 6.09524 77.8799 6.36824C78.0192 6.46274 78.1224 6.50999 78.1895 6.50999C78.272 6.50999 78.3907 6.41549 78.5404 6.22124C78.6694 6.04799 78.788 5.95874 78.8964 5.95874ZM86.1152 12.999V10.9672C86.1152 10.4055 85.8934 10.122 85.4444 10.122C84.8252 10.122 84.5156 10.5472 84.5156 11.3925C84.5156 11.8702 84.464 12.2115 84.3557 12.411C84.2525 12.6157 84.01 12.789 83.6384 12.936C83.2669 13.0777 82.8644 13.1512 82.4465 13.1512C81.5744 13.1512 81.141 12.6735 81.141 11.7232C81.141 10.8307 81.5228 10.0957 82.2814 9.53399C83.0399 8.96699 84.0254 8.68349 85.2484 8.68349C86.0533 8.68349 86.7757 8.79899 87.4207 9.01949C88.0606 9.24524 88.5714 9.62324 88.9532 10.1535C89.3351 10.6837 89.5312 11.2665 89.5363 11.9017V21.462C89.5466 21.5092 89.6498 21.6142 89.8356 21.777C89.9749 21.8767 90.042 22.0342 90.042 22.2337C90.042 22.5172 90.0007 22.7167 89.9285 22.827C89.8511 22.9477 89.6653 23.0527 89.3815 23.1525C89.0874 23.247 88.721 23.2995 88.2824 23.2995C87.751 23.2995 87.3072 23.1997 86.9512 22.995C86.59 22.7955 86.3165 22.407 86.1152 21.8242C85.5218 22.4542 85.0368 22.8585 84.6653 23.0317C84.2938 23.2102 83.9119 23.2995 83.5249 23.2995C82.6529 23.2995 81.9769 22.953 81.497 22.2547C81.0223 21.5617 80.7798 20.4277 80.7798 18.8475C80.7798 17.2725 81.0068 16.1752 81.4558 15.5715C81.8995 14.9572 82.7716 14.3955 84.0667 13.8757C84.8923 13.5555 85.5786 13.2615 86.1152 12.999ZM86.1152 14.3587C85.3361 14.7105 84.8717 15.099 84.722 15.5347C84.5724 15.9705 84.495 16.9522 84.495 18.4747C84.495 19.5982 84.5569 20.307 84.6808 20.601C84.8046 20.9002 85.0162 21.0472 85.3206 21.0472C85.8521 21.0472 86.1152 20.5957 86.1152 19.7085V14.3587ZM94.913 18.5482V21.357C94.913 21.546 95.0008 21.693 95.1762 21.798C95.3104 21.8715 95.3774 22.008 95.3774 22.2022V22.764C95.3774 23.0212 95.2433 23.1472 94.9904 23.1472H91.2959C91.0482 23.1472 90.9244 22.9897 90.9244 22.6747V22.1812C90.9244 22.0657 91.0224 21.9292 91.2133 21.777C91.3681 21.6405 91.4507 21.546 91.4713 21.4935C91.4868 21.4357 91.4971 21.3465 91.4971 21.231V8.68349C91.4971 8.23724 91.363 7.91699 91.105 7.72274C91.0224 7.65449 90.9708 7.58624 90.9605 7.52849C90.9502 7.47599 90.945 7.33949 90.945 7.12424C90.945 6.67274 90.9553 6.41549 90.9708 6.34199C90.9914 6.27374 91.0946 6.24224 91.2856 6.24224H94.5312C94.7066 6.24224 94.8098 6.26324 94.8511 6.31574C94.8924 6.37349 94.913 6.49949 94.913 6.69899V15.7867L96.8222 11.3662C96.9461 11.088 97.008 10.899 97.008 10.7992C97.008 10.5682 96.8429 10.3845 96.523 10.2532C96.3733 10.1955 96.2804 10.1272 96.2288 10.0432C96.1824 9.95924 96.1566 9.79124 96.1566 9.53399C96.1566 9.21374 96.1876 9.01949 96.2495 8.94599C96.3114 8.87249 96.4249 8.83574 96.6004 8.83574H99.4435C99.5983 8.85674 99.6757 9.04049 99.6757 9.38699C99.6757 9.70199 99.6499 9.91199 99.588 10.0222C99.5364 10.1325 99.4022 10.2427 99.2062 10.3425C98.8966 10.5 98.685 10.7047 98.5612 10.962L97.8233 12.4897L100.027 21.1365C100.089 21.3937 100.228 21.5985 100.455 21.7507C100.605 21.8557 100.682 22.0027 100.682 22.2022V22.764C100.682 23.0212 100.537 23.1472 100.259 23.1472H97.493C97.1422 23.1472 96.9151 22.9162 96.8119 22.4542L95.6303 17.0572L94.913 18.5482ZM105.29 15.7867V20.0707C105.29 20.6377 105.398 21.0787 105.61 21.399C105.826 21.7192 106.105 21.882 106.446 21.882C106.967 21.882 107.385 21.6562 107.7 21.2047C108.009 20.7532 108.179 20.139 108.2 19.3515C108.205 18.9315 108.241 18.6795 108.319 18.5955C108.386 18.5115 108.639 18.4695 109.072 18.4695C109.444 18.4695 109.676 18.5115 109.774 18.585C109.877 18.6637 109.929 18.858 109.929 19.1625C109.929 20.2387 109.583 21.1995 108.897 22.0395C108.21 22.8795 107.297 23.2995 106.162 23.2995C104.862 23.2995 103.757 22.6957 102.854 21.4987C101.946 20.3017 101.492 18.501 101.492 16.086C101.492 13.6762 101.91 11.8387 102.751 10.5787C103.592 9.31349 104.691 8.68349 106.048 8.68349C107.22 8.68349 108.154 9.21899 108.866 10.2795C109.573 11.3452 109.929 12.8572 109.929 14.8102V15.7867H105.29ZM106.698 14.4585V10.9987C106.698 10.3425 106.466 10.017 106.002 10.017C105.527 10.017 105.29 10.3425 105.29 10.9987V14.4585H106.698Z" fill="#E5594C"/>
<path d="M64.9128 29.3214L64.8818 30.0826C64.3349 30.0301 63.7982 30.0039 63.2719 30.0039C63.2616 30.4764 63.2513 31.0906 63.2513 31.8414C63.2513 32.6604 63.2771 33.4426 63.3287 34.1829H62.4154C62.4618 33.5004 62.4876 32.7181 62.4876 31.8414C62.4876 31.1116 62.4721 30.4974 62.4463 30.0039C61.92 30.0039 61.3782 30.0301 60.8209 30.0826L60.8519 29.3214H64.9128ZM70.3876 31.6051C70.3876 32.4766 70.1399 33.1591 69.6497 33.6474C69.1543 34.1356 68.5764 34.3824 67.9056 34.3824C67.2864 34.3824 66.7498 34.1619 66.3008 33.7314C65.8519 33.2956 65.63 32.6866 65.63 31.8991C65.63 31.0224 65.8777 30.3346 66.3731 29.8411C66.8684 29.3424 67.4464 29.1009 68.112 29.1009C68.7364 29.1009 69.273 29.3161 69.7168 29.7519C70.1657 30.1929 70.3876 30.8071 70.3876 31.6051ZM69.5155 31.7836C69.5155 31.2481 69.3865 30.7756 69.1234 30.3661C68.8602 29.9514 68.4835 29.7414 67.9985 29.7414C67.5186 29.7414 67.1419 29.9356 66.8839 30.3294C66.6259 30.7231 66.4969 31.1746 66.4969 31.6944C66.4969 32.2299 66.6259 32.7024 66.8891 33.1171C67.1522 33.5319 67.5289 33.7366 68.0191 33.7366C68.499 33.7366 68.8705 33.5371 69.1285 33.1434C69.3865 32.7496 69.5155 32.2981 69.5155 31.7836ZM76.1048 31.5526C76.1048 32.2876 75.8984 32.9334 75.4856 33.4899C75.0728 34.0411 74.4949 34.3194 73.757 34.3194C73.143 34.3194 72.7354 34.2091 72.5444 33.9834H72.4928C72.4928 34.9284 72.5032 35.7736 72.5238 36.5191H71.5795C71.6518 35.6109 71.693 34.4926 71.693 33.1591C71.693 31.5159 71.6105 30.2454 71.4402 29.3424L72.3277 29.2164L72.4 29.7204H72.4516C72.7766 29.3371 73.303 29.1429 74.0305 29.1429C74.6704 29.1429 75.176 29.3791 75.5476 29.8569C75.9191 30.3346 76.1048 30.8964 76.1048 31.5526ZM75.2122 31.6734C75.2122 31.1694 75.078 30.7389 74.82 30.3819C74.5568 30.0196 74.1905 29.8411 73.7158 29.8411C73.1172 29.8411 72.6838 30.0249 72.4206 30.3976C72.4774 31.5421 72.5032 32.5239 72.5032 33.3481C72.7766 33.5791 73.1275 33.6946 73.5661 33.6946C74.1182 33.6946 74.531 33.4951 74.8045 33.1014C75.0728 32.7076 75.2122 32.2299 75.2122 31.6734ZM80.914 29.3214L80.883 30.0826C80.3412 30.0301 79.8046 30.0039 79.2782 30.0039C79.2628 30.4764 79.2576 31.0906 79.2576 31.8414C79.2576 32.6604 79.2834 33.4426 79.335 34.1829H78.4165C78.463 33.5004 78.4888 32.7181 78.4888 31.8414C78.4888 31.1116 78.4733 30.4974 78.4475 30.0039C77.9263 30.0039 77.3845 30.0301 76.8272 30.0826L76.8582 29.3214H80.914ZM85.429 32.5554C85.429 33.0856 85.2226 33.4899 84.8098 33.7786C84.397 34.0674 83.9222 34.2144 83.3959 34.2144C83.1224 34.2144 82.5961 34.2039 81.817 34.1829C81.8531 33.5004 81.8737 32.7181 81.8737 31.8414C81.8737 30.8596 81.8118 30.0301 81.6931 29.3634L82.6426 29.2269C82.6116 29.6574 82.6013 30.3031 82.6013 31.1641C82.8335 31.0959 83.0605 31.0696 83.2772 31.0696C84.7117 31.0696 85.429 31.5631 85.429 32.5554ZM87.0647 34.1829H86.1926C86.2391 33.5004 86.2649 32.7181 86.2649 31.8414C86.2649 30.8596 86.203 30.0301 86.0894 29.3634L87.0544 29.2269C87.0079 29.9356 86.9873 30.8124 86.9873 31.8414C86.9873 32.6604 87.0131 33.4426 87.0647 34.1829ZM84.655 32.6394C84.655 32.0041 84.1957 31.6839 83.2772 31.6839C83.107 31.6839 82.8799 31.7101 82.6013 31.7626C82.6013 32.3716 82.6064 32.9596 82.6219 33.5266C82.8696 33.5686 83.1328 33.5896 83.4114 33.5896C84.2422 33.5896 84.655 33.2694 84.655 32.6394ZM94.5725 32.7444C94.5725 33.2221 94.3816 33.5844 93.9997 33.8364C93.6179 34.0884 93.0761 34.2144 92.364 34.2144C91.9925 34.2144 91.4094 34.2039 90.6302 34.1829C90.6715 33.7156 90.6973 32.9334 90.6973 31.8309C90.6973 30.8124 90.6406 29.9776 90.5219 29.3214H91.043C91.5436 29.2846 92.0492 29.2689 92.5704 29.2689C93.7624 29.2689 94.3558 29.6416 94.3558 30.3924C94.3558 30.9436 94.1132 31.3216 93.6282 31.5264V31.5789C94.2577 31.6996 94.5725 32.0881 94.5725 32.7444ZM93.7572 32.7969C93.7572 32.4451 93.6024 32.2089 93.2876 32.0829C93.0916 32.0094 92.7871 31.9726 92.3743 31.9726C92.0596 31.9726 91.75 31.9831 91.4352 32.0094C91.4352 32.6131 91.4404 33.1171 91.4455 33.5214C91.75 33.5634 92.1163 33.5844 92.5446 33.5844C93.3547 33.5844 93.7572 33.3219 93.7572 32.7969ZM93.5818 30.6129C93.5818 30.1351 93.2412 29.8936 92.5601 29.8936C92.2195 29.8936 91.8377 29.9094 91.3939 29.9409C91.4249 30.4344 91.4352 30.9121 91.4352 31.3689C91.8583 31.3846 92.2092 31.3951 92.4982 31.3951C92.8439 31.3951 93.1122 31.3164 93.3031 31.1694C93.4889 31.0276 93.5818 30.8439 93.5818 30.6129ZM102.71 33.3691L102.643 34.1304C102.23 34.2564 101.781 34.3194 101.296 34.3194C100.145 34.3194 99.2784 33.9991 98.7005 33.3534C98.1174 32.7129 97.8284 31.9254 97.8284 31.0014C97.8284 30.0301 98.1535 29.1901 98.7985 28.4866C99.4435 27.7831 100.316 27.4314 101.409 27.4314C101.709 27.4314 102.029 27.4786 102.364 27.5679L102.225 28.3816C101.838 28.2609 101.492 28.1979 101.193 28.1979C100.383 28.1979 99.7686 28.4551 99.3455 28.9644C98.9275 29.4789 98.7211 30.1036 98.7211 30.8439C98.7211 31.5946 98.9585 32.2404 99.4435 32.7811C99.9234 33.3166 100.589 33.5896 101.446 33.5896C101.771 33.5896 102.189 33.5161 102.71 33.3691ZM108.241 31.6051C108.241 32.4766 107.994 33.1591 107.498 33.6474C107.008 34.1356 106.425 34.3824 105.759 34.3824C105.135 34.3824 104.604 34.1619 104.155 33.7314C103.706 33.2956 103.484 32.6866 103.484 31.8991C103.484 31.0224 103.731 30.3346 104.227 29.8411C104.717 29.3424 105.3 29.1009 105.966 29.1009C106.59 29.1009 107.122 29.3161 107.571 29.7519C108.014 30.1929 108.241 30.8071 108.241 31.6051ZM107.369 31.7836C107.369 31.2481 107.235 30.7756 106.977 30.3661C106.709 29.9514 106.337 29.7414 105.852 29.7414C105.367 29.7414 104.996 29.9356 104.738 30.3294C104.48 30.7231 104.351 31.1746 104.351 31.6944C104.351 32.2299 104.48 32.7024 104.743 33.1171C105.006 33.5319 105.383 33.7366 105.873 33.7366C106.353 33.7366 106.724 33.5371 106.982 33.1434C107.24 32.7496 107.369 32.2981 107.369 31.7836ZM112.911 34.1829H112.018C112.07 33.5529 112.096 32.8126 112.096 31.9516C111.709 32.1669 111.239 32.2719 110.682 32.2719C110.114 32.2719 109.696 32.1406 109.423 31.8676C109.155 31.5946 109.015 31.0381 109.015 30.1981C109.015 30.0249 108.995 29.7414 108.959 29.3424L109.841 29.2164C109.81 29.5419 109.794 29.7991 109.794 29.9986C109.794 30.6129 109.877 31.0329 110.037 31.2534C110.202 31.4739 110.481 31.5841 110.883 31.5841C111.373 31.5841 111.771 31.5054 112.086 31.3479C112.065 30.5551 112.013 29.8936 111.931 29.3634L112.901 29.2269C112.865 29.9356 112.844 30.8124 112.844 31.8414C112.844 32.6604 112.865 33.4426 112.911 34.1829ZM118.355 34.1829H117.457C117.504 33.6001 117.529 32.8179 117.529 31.8414C117.529 31.5684 117.55 31.1536 117.581 30.6024H117.529C117.462 30.8386 117.003 31.4529 116.162 32.4556C115.357 33.4164 114.96 33.9886 114.96 34.1829H114.242C114.289 33.5004 114.315 32.7181 114.315 31.8414C114.315 30.8596 114.258 30.0301 114.139 29.3634L115.135 29.2269C115.089 29.8569 115.068 30.6601 115.068 31.6366C115.068 31.9779 115.058 32.4136 115.037 32.9439H115.089C115.166 32.7286 115.62 32.1091 116.456 31.0906C117.24 30.1351 117.633 29.5576 117.633 29.3634L118.345 29.2269C118.303 29.9356 118.283 30.8124 118.283 31.8414C118.283 32.6604 118.308 33.4426 118.355 34.1829Z" fill="#E7A243"/>
</svg>
